<?xml version="1.0" encoding="UTF-8" standalone="no"?>
<svg
   width="260"
   height="260"
   viewBox="0 0 260 260"
   version="1.1"
   xmlns="http://www.w3.org/2000/svg"
   xmlns:svg="http://www.w3.org/2000/svg">
  <defs>
    <filter
       id="filter882"
       height="1.180052"
       y="-0.074504269"
       x="-0.055960984"
       width="1.135239">
      <feFlood
         flood-opacity="0.2"
         flood-color="rgb(0,0,0)"
         result="flood"
         id="feFlood872" />
      <feComposite
         in="flood"
         in2="SourceGraphic"
         operator="in"
         result="composite1"
         id="feComposite874" />
      <feGaussianBlur
         in="composite1"
         stdDeviation="4"
         result="blur"
         id="feGaussianBlur876" />
      <feOffset
         dx="4"
         dy="4"
         result="offset"
         id="feOffset878" />
      <feComposite
         in="SourceGraphic"
         in2="offset"
         operator="over"
         result="composite2"
         id="feComposite880" />
    </filter>
  </defs>
  <path
     d="M -2.9747359e-6,0 V 260 H 260 V 0 Z"
     style="fill:{{project_theme_color}};" />
  <path
     d="m 321.94478,214.35222 q -1.90609,0 -3.04974,-0.38122 h -3.81218 -3.43097 -1.33426 l -8.5774,-2.09669 -0.76244,-1.52488 q -0.19061,0 -0.19061,-2.0967 0,-2.66852 -0.19061,-4.384 l -0.19061,-8.76802 q -0.19061,-2.85913 -0.19061,-8.5774 l -0.38121,-14.67689 q 0,-4.76523 0.38121,-13.15202 l 0.19061,-6.48071 q 0.38122,-6.09949 0.38122,-20.01394 v -1.33427 -2.47791 q -0.38122,-0.57183 -0.38122,-2.0967 l -0.19061,-1.33427 q 0,-4.76522 0.57183,-9.91166 0.38122,-6.48071 0.38122,-11.81776 l -0.19061,-5.337053 q -0.19061,-2.096698 -0.19061,-4.955833 0,-0.190609 -0.38122,-0.571827 -0.19061,-0.381218 -0.19061,-0.762436 0,-1.90609 1.52488,-3.240353 1.52487,-1.334263 3.81218,-1.90609 3.04974,-0.953045 7.81496,-0.953045 h 32.21292 14.86751 q 0.1906,0 0.57182,0.381218 0.38122,0.381218 0.76244,0.571827 1.52487,1.334263 3.81218,5.146443 0.57183,1.143654 1.14365,2.668526 0.76244,1.334263 1.90609,4.384006 1.33427,3.049747 3.62157,9.339837 l 2.28731,5.90888 q 1.52487,2.85914 3.43096,8.19619 0.57183,1.52487 1.14366,3.04974 0.76243,1.52488 1.33426,3.04975 0.38122,1.33426 0.76244,2.0967 0.57182,0.57182 0.57182,0.76243 1.33427,3.04975 2.85914,3.04975 1.90609,0 3.04974,-3.04975 0.19061,-0.19061 0.38122,-0.76243 0.19061,-0.76244 0.95304,-2.28731 l 2.85914,-6.2901 7.62436,-16.20176 3.24035,-6.861927 q 0.57183,-1.524872 0.76244,-2.477917 0.38122,-1.143653 0.76243,-1.524871 0.76244,-1.715481 3.62158,-5.908879 0.95304,-1.524872 1.71548,-2.287308 0.57182,-0.190609 0.76243,-0.571827 0.19061,-0.381218 0.57183,-0.381218 h 14.8675 32.21292 2.85914 1.90609 2.47791 4.1934 q 0.38122,0 0.95304,2.859135 l 0.57183,18.679682 q 0.38122,8.00558 0.38122,25.16039 v 11.05532 q 0,6.4807 -0.57183,14.48628 -0.57182,8.00558 -0.76243,10.29289 l -0.38122,3.81218 v 6.67131 q 0.19061,2.66853 0.19061,8.00558 0,5.71827 0.19061,8.5774 0,5.52766 0.38121,7.62436 v 5.52766 2.0967 l -0.57182,1.52488 -8.57741,2.09669 h -1.33426 -3.43096 -3.81218 q -1.33426,0.38122 -3.24035,0.38122 -3.43097,0 -9.53045,-0.38122 l -4.76523,-0.1906 q -1.33426,-0.19061 -3.04974,-0.38122 -1.71548,-0.19061 -4.1934,-0.19061 l -7.43375,-0.57183 q -0.38122,0 -0.57183,0.19061 h -1.52487 q -0.95305,0 -1.14365,-2.0967 -1.14366,-3.81218 -1.14366,-12.96141 0,-6.09949 -0.19061,-9.53045 L 415.7244,177.9459 q -0.19061,-3.43096 -0.19061,-9.91166 0,-1.52487 -1.33426,-1.52487 -0.76243,0 -1.52487,1.90609 l -2.0967,5.14644 -1.71548,4.76522 q -0.38122,1.14366 -0.76244,2.28731 -0.38121,1.14365 -0.95304,2.0967 l -0.95305,2.28731 q -1.71548,3.81218 -4.384,8.5774 -2.85914,5.14645 -7.05254,8.19619 -2.2873,1.33426 -4.00278,1.33426 h -2.85914 q -2.28731,0 -3.81218,-0.38122 h -4.1934 -3.81218 q -7.62436,-12.19897 -14.29567,-26.68526 l -2.85914,-7.05253 q -1.14365,-2.47791 -1.52487,-2.47791 -1.33426,0 -1.33426,1.52487 v 8.95862 q 0,13.34263 -0.38122,19.63273 -0.38122,9.91166 -1.33426,13.72384 -0.19061,2.47792 -1.14366,2.47792 h -1.33426 l -0.95304,-0.19061 q -6.48071,0.38122 -10.29289,0.76244 -2.28731,0.19061 -8.00558,0.57182 -5.71827,0.38122 -10.6741,0.38122 z"
     style="fill:#ffffff;filter:url(#filter882)"
     transform="matrix(1.2124884,0,0,1.1995358,-337.03778,-48.91853)" />
</svg>
