<?xml version="1.0" standalone="no"?>
<!DOCTYPE svg PUBLIC "-//W3C//DTD SVG 20010904//EN"
 "http://www.w3.org/TR/2001/REC-SVG-20010904/DTD/svg10.dtd">
<svg version="1.0" xmlns="http://www.w3.org/2000/svg"
 width="700.000000pt" height="700.000000pt" viewBox="0 0 700.000000 700.000000"
 preserveAspectRatio="xMidYMid meet">
<metadata>
Created by potrace 1.11, written by Peter Selinger 2001-2013
</metadata>
<g transform="translate(0.000000,700.000000) scale(0.100000,-0.100000)"
fill="#000000" stroke="none">
<path d="M0 3500 l0 -3500 3500 0 3500 0 0 3500 0 3500 -3500 0 -3500 0 0
-3500z m4270 480 c183 -572 334 -1039 336 -1037 1 1 144 447 318 992 175 545
324 1011 332 1038 l16 47 474 0 474 0 0 -1495 0 -1495 -360 0 -360 0 0 387 c0
290 8 541 30 1002 17 339 30 635 28 658 -3 36 -61 -127 -358 -1002 l-355
-1045 -240 0 -240 0 -354 1043 c-195 573 -358 1049 -362 1057 -5 8 -6 -19 -3
-60 27 -393 64 -1352 64 -1672 l0 -368 -360 0 -360 0 0 1495 0 1495 473 0 473
0 334 -1040z m-2305 280 c288 -74 496 -283 588 -590 40 -131 48 -191 54 -377
l6 -173 -792 0 -791 0 0 -82 c0 -247 88 -466 255 -634 74 -74 105 -98 175
-132 145 -71 279 -93 436 -73 183 25 313 88 437 213 l79 79 74 -56 c88 -66 89
-58 -24 -177 -110 -115 -188 -165 -342 -220 -134 -47 -367 -64 -522 -39 -307
51 -571 258 -709 556 -74 162 -109 341 -109 565 0 381 102 669 315 885 158
161 311 243 513 275 86 14 265 4 357 -20z"/>
<path d="M1620 4071 c-301 -57 -520 -318 -579 -691 l-8 -50 669 0 670 0 -6 38
c-3 20 -8 64 -12 97 -9 88 -50 221 -90 291 -79 143 -206 252 -342 295 -75 23
-229 33 -302 20z"/>
</g>
</svg>
