<?xml version="1.0" encoding="UTF-8" standalone="no"?>
<!-- Created with Inkscape (http://www.inkscape.org/) -->

<svg
   xmlns:dc="http://purl.org/dc/elements/1.1/"
   xmlns:cc="http://creativecommons.org/ns#"
   xmlns:rdf="http://www.w3.org/1999/02/22-rdf-syntax-ns#"
   xmlns:svg="http://www.w3.org/2000/svg"
   xmlns="http://www.w3.org/2000/svg"
   xmlns:xlink="http://www.w3.org/1999/xlink"
   xmlns:sodipodi="http://sodipodi.sourceforge.net/DTD/sodipodi-0.dtd"
   xmlns:inkscape="http://www.inkscape.org/namespaces/inkscape"
   id="svg2"
   version="1.1"
   inkscape:version="0.48.0 r9654"
   width="15.475365"
   height="14.306316"
   sodipodi:docname="info.svg">
  <metadata
     id="metadata8">
    <rdf:RDF>
      <cc:Work
         rdf:about="">
        <dc:format>image/svg+xml</dc:format>
        <dc:type
           rdf:resource="http://purl.org/dc/dcmitype/StillImage" />
        <dc:title></dc:title>
      </cc:Work>
    </rdf:RDF>
  </metadata>
  <defs
     id="defs6">
    <linearGradient
       id="linearGradient3757">
      <stop
         style="stop-color:#a1d18d;stop-opacity:1;"
         offset="0"
         id="stop3759" />
      <stop
         id="stop3765"
         offset="0.51234156"
         style="stop-color:#54923b;stop-opacity:1;" />
      <stop
         style="stop-color:#a1d18d;stop-opacity:1;"
         offset="1"
         id="stop3761" />
    </linearGradient>
    <linearGradient
       inkscape:collect="always"
       xlink:href="#linearGradient3757"
       id="linearGradient3763"
       x1="-4.590425"
       y1="4.7681222"
       x2="7.5291486"
       y2="16.887695"
       gradientUnits="userSpaceOnUse"
       gradientTransform="translate(12.376387,-13.67329)" />
  </defs>
  <sodipodi:namedview
     pagecolor="#ffffff"
     bordercolor="#666666"
     borderopacity="1"
     objecttolerance="10"
     gridtolerance="10"
     guidetolerance="10"
     inkscape:pageopacity="0"
     inkscape:pageshadow="2"
     inkscape:window-width="1440"
     inkscape:window-height="850"
     id="namedview4"
     showgrid="false"
     fit-margin-top="0"
     fit-margin-left="0"
     fit-margin-right="0"
     fit-margin-bottom="0"
     inkscape:zoom="11.844039"
     inkscape:cx="17.928318"
     inkscape:cy="-8.4113488"
     inkscape:window-x="-8"
     inkscape:window-y="-8"
     inkscape:window-maximized="1"
     inkscape:current-layer="svg2" />
  <rect
     style="color:#000000;fill:url(#linearGradient3763);fill-opacity:1;fill-rule:nonzero;stroke:#4d9c31;stroke-width:1.00177228;stroke-miterlimit:4;stroke-opacity:1;stroke-dasharray:none;marker:none;visibility:visible;display:inline;overflow:visible;enable-background:accumulate"
     id="rect2987"
     width="11"
     height="11"
     x="5.039988"
     y="-5.4701662"
     transform="matrix(0.7362102,0.67675294,-0.7362102,0.67675294,0,0)"
     rx="2"
     ry="2" />
  <g
     style="font-size:8px;font-style:normal;font-variant:normal;font-weight:normal;font-stretch:normal;text-align:start;line-height:125%;letter-spacing:0px;word-spacing:0px;writing-mode:lr-tb;text-anchor:start;fill:#ffffff;fill-opacity:1;stroke:none;font-family:Arial Narrow;-inkscape-font-specification:Arial Narrow"
     id="text3767"
     transform="translate(19.178038,-0.87768286)">
    <path
       d="m -9.4723387,12.13212 -3.8880613,0 0,-0.191894 0.288208,-0.01208 c 0.231933,-0.02393 0.371886,-0.0799 0.419861,-0.167908 0.04797,-0.08801 0.07196,-0.28009 0.07196,-0.576233 l 0.01208,-0.55188 0,-2.8681639 -0.01208,-0.4918213 c -0.01587,-0.1918895 -0.03986,-0.3358713 -0.07196,-0.4319458 -0.03211,-0.096064 -0.176087,-0.1560615 -0.431946,-0.1799927 l -0.324097,-0.02417 0,-0.1918945 3.143921,0 0,4.1879882 0.01208,0.55188 c -3e-6,0.288087 0.02398,0.47815 0.07196,0.57019 0.04797,0.09204 0.1880463,0.150025 0.4202275,0.173951 l 0.2878418,0.01208 z M -12.592456,4.4402256 c -10e-7,-0.3120037 0.114013,-0.5779947 0.342041,-0.7979736 0.228026,-0.219962 0.502074,-0.3299473 0.822144,-0.3299561 0.327878,8.8e-6 0.605832,0.1059658 0.833862,0.3178711 0.228024,0.2119224 0.342038,0.4819416 0.342041,0.8100586 -3e-6,0.3198316 -0.114017,0.5897898 -0.342041,0.8098755 -0.22803,0.2200994 -0.505984,0.3301457 -0.833862,0.3301391 -0.32007,6.6e-6 -0.594118,-0.1100397 -0.822144,-0.3301391 -0.228028,-0.2200857 -0.342042,-0.4900439 -0.342041,-0.8098755 z"
       style="font-size:12px;fill:#ffffff;font-family:Elephant;-inkscape-font-specification:Elephant"
       id="path3772"
       inkscape:connector-curvature="0" />
  </g>
</svg>
