<?xml version="1.0" encoding="UTF-8" standalone="no"?>
<svg
   width="512"
   height="512.00006"
   viewBox="0 0 512.00002 512.00006"
   version="1.1"
   xmlns:xlink="http://www.w3.org/1999/xlink"
   xmlns="http://www.w3.org/2000/svg"
   xmlns:svg="http://www.w3.org/2000/svg">
  <defs
     id="defs12">
    <linearGradient
       id="Finish_light">
      <stop
         style="stop-color:#ffffff;stop-opacity:1;"
         offset="0"
         id="stop983" />
      <stop
         style="stop-color:#ffffff;stop-opacity:0;"
         offset="1"
         id="stop985" />
    </linearGradient>
    <filter
       style="color-interpolation-filters:sRGB"
       id="filter882-3"
       height="1.1800526"
       width="1.091703"
       y="-0.074504527"
       x="-0.037946068">
      <feFlood
         flood-opacity="0.2"
         flood-color="rgb(0,0,0)"
         result="flood"
         id="feFlood872-6" />
      <feComposite
         in="flood"
         in2="SourceGraphic"
         operator="in"
         result="composite1"
         id="feComposite874-7" />
      <feGaussianBlur
         in="composite1"
         stdDeviation="4"
         result="blur"
         id="feGaussianBlur876-5" />
      <feOffset
         dx="4"
         dy="4"
         result="offset"
         id="feOffset878-3" />
      <feComposite
         in="SourceGraphic"
         in2="offset"
         operator="over"
         result="composite2"
         id="feComposite880-5" />
    </filter>
    <radialGradient
       xlink:href="#Finish_light"
       id="radialGradient1720"
       gradientUnits="userSpaceOnUse"
       gradientTransform="matrix(0,3.9384615,-3.9384615,0,10e-6,0)"
       cx="-8.5265128e-14"
       cy="-7.5464374e-14"
       fx="-8.5265128e-14"
       fy="-7.5464374e-14"
       r="130" />
  </defs>
  <path
     style="fill:#AFD954;"
     d="M 0,0 V 512 H 512 V 0 H 300.13462 A 51.2,51.2 0 0 1 256,25.35385 51.2,51.2 0 0 1 211.87308,0 Z"
     id="disk" />
  <path
     style="fill:#ffffff;filter:url(#filter882-3)"
     d="m 313.36834,85.50077 c -3.17681,0 -5.78314,0.318338 -7.8163,0.9537 -1.52487,0.381218 -2.79579,1.015473 -3.81237,1.904981 -1.01658,0.889507 -1.52542,1.970403 -1.52542,3.241129 0,0.254145 0.0645,0.508331 0.19158,0.762476 0.25414,0.254145 0.38075,0.44418 0.38075,0.571252 0,1.906088 0.0645,3.557088 0.19158,4.954886 l 0.18918,5.337336 c 0,3.55803 -0.12661,7.49912 -0.38076,11.81959 -0.38122,3.43096 -0.57233,6.73296 -0.57233,9.90977 l 0.19158,1.33615 c 0,1.01658 0.12661,1.71498 0.38075,2.0962 v 2.47624 1.33615 c 0,9.27629 -0.12661,15.94686 -0.38075,20.01318 l -0.19158,6.47984 c -0.25414,5.59119 -0.38076,9.9765 -0.38076,13.15332 l 0.38076,14.67585 c 0,3.81218 0.0645,6.67238 0.19158,8.57847 l 0.19157,8.76726 c 0.12707,1.14366 0.18918,2.60463 0.18918,4.38364 0,1.3978 0.0645,2.0962 0.19158,2.0962 l 0.76151,1.52495 8.57783,2.09863 h 1.33384 3.43161 3.81237 c 0.76243,0.25415 1.77773,0.38003 3.04845,0.38003 3.30388,0 6.8634,-0.12588 10.67558,-0.38003 3.81218,-0.25414 6.48062,-0.4466 8.00549,-0.57367 2.54145,-0.25415 5.97196,-0.50833 10.29243,-0.76248 l 0.95309,0.19122 h 1.33385 c 0.63536,0 1.01759,-0.8267 1.14466,-2.47865 0.63536,-2.54145 1.07971,-7.11438 1.33385,-13.72215 0.25415,-4.1934 0.38076,-10.73808 0.38076,-19.63316 v -8.95849 c 0,-1.01658 0.44434,-1.52495 1.33385,-1.52495 0.25414,0 0.76299,0.82671 1.52542,2.47865 l 2.85928,7.05109 c 4.44753,9.65752 9.21346,18.55403 14.29637,26.68667 h 3.81236 4.19312 c 1.01658,0.25415 2.2875,0.38003 3.81237,0.38003 h 2.85927 c 1.14365,0 2.47668,-0.44423 4.00155,-1.33373 2.79559,-2.03316 5.1463,-4.76505 7.05239,-8.19602 1.77902,-3.17681 3.24105,-6.03701 4.3847,-8.57846 l 0.95309,-2.28743 c 0.38122,-0.63536 0.69895,-1.33377 0.95309,-2.0962 l 0.76152,-2.28743 1.717,-4.76608 2.09536,-5.14611 c 0.5083,-1.27073 1.01714,-1.90498 1.52543,-1.90498 0.88951,0 1.33385,0.50837 1.33385,1.52495 0,4.32046 0.0645,7.62489 0.19157,9.91219 l 0.18919,10.29222 c 0.12707,2.2873 0.19157,5.46342 0.19157,9.52974 0,6.09948 0.37984,10.42065 1.14227,12.9621 0.12707,1.3978 0.50931,2.0962 1.14467,2.0962 h 1.52543 c 0.12707,-0.12707 0.31818,-0.19122 0.57233,-0.19122 l 7.43315,0.57367 c 1.65195,0 3.04947,0.0617 4.19313,0.18881 1.14365,0.12707 2.16134,0.25537 3.05085,0.38244 l 4.76306,0.19123 c 4.06631,0.25415 7.2436,0.38003 9.53091,0.38003 1.27073,0 2.35053,-0.12588 3.24003,-0.38003 h 3.81237 3.4316 1.33385 l 8.57782,-2.09863 0.57234,-1.52495 v -2.0962 -5.52614 c -0.25414,-1.3978 -0.38076,-3.93966 -0.38076,-7.62476 -0.12707,-1.90609 -0.19158,-4.76629 -0.19158,-8.57847 0,-3.55803 -0.0645,-6.22577 -0.19157,-8.00479 v -6.67106 l 0.38315,-3.81238 c 0.12707,-1.52487 0.3803,-4.95517 0.76151,-10.29222 0.38122,-5.33705 0.57234,-10.16659 0.57234,-14.48705 v -11.05469 c 0,-11.43653 -0.12661,-19.82467 -0.38076,-25.16172 l -0.57233,-18.679459 c -0.38122,-1.906088 -0.69895,-2.858681 -0.95309,-2.858681 h -4.19313 -2.47851 -1.90619 -2.85927 -32.21352 -14.86631 c -0.25415,0 -0.44526,0.125883 -0.57234,0.380028 -0.12707,0.254145 -0.3803,0.4466 -0.76151,0.573672 -0.50829,0.50829 -1.08164,1.270849 -1.717,2.287429 -1.90609,2.795596 -3.1125,4.764933 -3.62079,5.908586 -0.25414,0.254145 -0.50737,0.762518 -0.76152,1.524952 -0.12707,0.635363 -0.38269,1.459653 -0.76391,2.476233 l -3.24003,6.86229 -7.62473,16.20322 -2.85927,6.28862 c -0.50829,1.01657 -0.82602,1.77913 -0.95309,2.28742 -0.12707,0.38122 -0.25369,0.63541 -0.38076,0.76248 -0.76243,2.03317 -1.77773,3.04991 -3.04845,3.04991 -1.01658,0 -1.96977,-1.01674 -2.85928,-3.04991 0,-0.12707 -0.19112,-0.38126 -0.57233,-0.76248 -0.25415,-0.50829 -0.50976,-1.20669 -0.76391,-2.0962 -0.38122,-1.01658 -0.82556,-2.03332 -1.33385,-3.0499 l -1.14227,-3.04991 c -1.27073,-3.55803 -2.41503,-6.28992 -3.43161,-8.19601 l -2.28694,-5.90859 c -1.52487,-4.19339 -2.73367,-7.30778 -3.62318,-9.34094 -0.76244,-2.03316 -1.3955,-3.494126 -1.90379,-4.383633 -0.38121,-1.016581 -0.76345,-1.905022 -1.14467,-2.667457 -1.52487,-2.541451 -2.79578,-4.256602 -3.81236,-5.14611 -0.25415,-0.127072 -0.50737,-0.319527 -0.76152,-0.573672 -0.25414,-0.254145 -0.44527,-0.380028 -0.57233,-0.380028 h -14.8687 z m -61.2373,48.66777 c -6.73826,0 -12.67012,1.61063 -17.79503,4.83628 -5.03003,3.22554 -8.96833,7.82743 -11.81546,13.80445 -2.75224,5.97691 -4.12846,13.14099 -4.12846,21.48973 0,8.44349 1.51781,15.60525 4.55472,21.48731 3.1319,5.78719 7.45075,10.15172 12.95533,13.0928 5.59937,2.94097 12.00467,4.41026 19.21748,4.41026 5.21981,0 9.72904,-0.42644 13.52528,-1.28047 3.79624,-0.75896 7.63936,-1.99088 11.53049,-3.69862 v -10.95787 c -3.98602,1.70784 -7.87793,3.03568 -11.67417,3.98424 -3.70136,0.85403 -7.97152,1.28047 -12.81166,1.28047 -7.59248,0 -13.52434,-2.22912 -17.79502,-6.688 -4.17547,-4.55385 -6.3569,-11.14739 -6.54712,-19.78081 h 52.24521 v -7.54247 c 0,-6.92568 -1.28104,-12.9488 -3.8435,-18.0719 -2.46746,-5.21795 -6.07391,-9.25184 -10.81926,-12.09795 -4.65036,-2.84612 -10.25036,-4.26745 -16.79883,-4.26745 z m -0.14848,10.24381 c 6.3587,0 11.00952,2.04213 13.95154,6.12159 2.93805,3.98461 4.45576,9.20247 4.55472,15.65376 h -38.86361 c 0.66433,-6.83072 2.70417,-12.14449 6.12085,-15.93938 3.51147,-3.88975 8.25747,-5.83597 14.2365,-5.83597 z"
     transform="matrix(1.6061099,0,0,1.5889523,-301.86554,13.83571)"
     id="letters" />
  <path
     style="opacity:0.1;fill:url(#radialGradient1720)"
     d="m 1e-5,0 V 512.00008 H 512 V 0 H 300.13462 A 51.2,51.2 0 0 1 256,25.35385 51.2,51.2 0 0 1 211.87308,0 Z"
     id="halo" />
</svg>
