<?xml version="1.0" encoding="UTF-8" standalone="no"?>
<svg
   xmlns:dc="http://purl.org/dc/elements/1.1/"
   xmlns:cc="http://creativecommons.org/ns#"
   xmlns:rdf="http://www.w3.org/1999/02/22-rdf-syntax-ns#"
   xmlns:svg="http://www.w3.org/2000/svg"
   xmlns="http://www.w3.org/2000/svg"
   xmlns:xlink="http://www.w3.org/1999/xlink"
   version="1.1"
   width="15.475365"
   height="14.306316"
   id="svg2">
  <defs
     id="defs6">
    <linearGradient
       id="linearGradient3757">
      <stop
         id="stop3759"
         style="stop-color:#706855;stop-opacity:1"
         offset="0" />
      <stop
         id="stop3765"
         style="stop-color:#424242;stop-opacity:1"
         offset="0.5" />
      <stop
         id="stop3761"
         style="stop-color:#706855;stop-opacity:1"
         offset="1" />
    </linearGradient>
    <linearGradient
       x1="-4.590425"
       y1="4.7681222"
       x2="7.5291486"
       y2="16.887695"
       id="linearGradient3763"
       xlink:href="#linearGradient3757"
       gradientUnits="userSpaceOnUse"
       gradientTransform="translate(12.376387,-13.67329)" />
  </defs>
  <rect
     width="11"
     height="11"
     rx="2"
     ry="2"
     x="5.039988"
     y="-5.4701662"
     transform="matrix(0.7362102,0.67675294,-0.7362102,0.67675294,0,0)"
     id="rect2987"
     style="color:#000000;fill:url(#linearGradient3763);fill-opacity:1;fill-rule:nonzero;stroke:#424242;stroke-width:1.00177228;stroke-miterlimit:4;stroke-opacity:1;stroke-dasharray:none;marker:none;visibility:visible;display:inline;overflow:visible;enable-background:accumulate" />
  <g
     transform="translate(19.178038,-0.87768286)"
     id="text3767"
     style="font-size:8px;font-style:normal;font-variant:normal;font-weight:normal;font-stretch:normal;text-align:start;line-height:125%;letter-spacing:0px;word-spacing:0px;writing-mode:lr-tb;text-anchor:start;fill:#ffffff;fill-opacity:1;stroke:none;font-family:Arial Narrow;-inkscape-font-specification:Arial Narrow">
    <path
       d="m -9.4723387,12.13212 -3.8880613,0 0,-0.191894 0.288208,-0.01208 c 0.231933,-0.02393 0.371886,-0.0799 0.419861,-0.167908 0.04797,-0.08801 0.07196,-0.28009 0.07196,-0.576233 l 0.01208,-0.55188 0,-2.8681639 -0.01208,-0.4918213 c -0.01587,-0.1918895 -0.03986,-0.3358713 -0.07196,-0.4319458 -0.03211,-0.096064 -0.176087,-0.1560615 -0.431946,-0.1799927 l -0.324097,-0.02417 0,-0.1918945 3.143921,0 0,4.1879882 0.01208,0.55188 c -3e-6,0.288087 0.02398,0.47815 0.07196,0.57019 0.04797,0.09204 0.1880463,0.150025 0.4202275,0.173951 l 0.2878418,0.01208 z M -12.592456,4.4402256 c -10e-7,-0.3120037 0.114013,-0.5779947 0.342041,-0.7979736 0.228026,-0.219962 0.502074,-0.3299473 0.822144,-0.3299561 0.327878,8.8e-6 0.605832,0.1059658 0.833862,0.3178711 0.228024,0.2119224 0.342038,0.4819416 0.342041,0.8100586 -3e-6,0.3198316 -0.114017,0.5897898 -0.342041,0.8098755 -0.22803,0.2200994 -0.505984,0.3301457 -0.833862,0.3301391 -0.32007,6.6e-6 -0.594118,-0.1100397 -0.822144,-0.3301391 -0.228028,-0.2200857 -0.342042,-0.4900439 -0.342041,-0.8098755 z"
       id="path3772"
       style="font-size:12px;fill:#ffffff;font-family:Elephant;-inkscape-font-specification:Elephant" />
  </g>
</svg>
