<?xml version="1.0" encoding="UTF-8" standalone="no"?>
<!-- Created with Inkscape (http://www.inkscape.org/) -->

<svg
   version="1.1"
   width="384"
   height="230"
   id="svg2"
   xmlns="http://www.w3.org/2000/svg"
   xmlns:svg="http://www.w3.org/2000/svg"
   xmlns:rdf="http://www.w3.org/1999/02/22-rdf-syntax-ns#"
   xmlns:cc="http://creativecommons.org/ns#"
   xmlns:dc="http://purl.org/dc/elements/1.1/">
  <defs
     id="defs4" />
  <metadata
     id="metadata7">
    <rdf:RDF>
      <cc:Work
         rdf:about="">
        <dc:format>image/svg+xml</dc:format>
        <dc:type
           rdf:resource="http://purl.org/dc/dcmitype/StillImage" />
      </cc:Work>
    </rdf:RDF>
  </metadata>
  <g
     transform="translate(215,143)"
     id="layer2"
     style="display:inline" />
  <g
     transform="translate(-2009.0008,173.58557)"
     id="layer1"
     style="fill:#ffffff">
    <g
       transform="matrix(8.6396301,0,0,8.6396301,-19984.93,2839.3335)"
       id="g5335"
       style="fill:#ffffff;fill-opacity:1">
      <path
         d="m 315,35.81546 a 3,3 0 1 1 -6,0 3,3 0 1 1 6,0 z"
         transform="rotate(180,1439.963,-146.30312)"
         id="path5337"
         style="fill:#ffffff;fill-opacity:1;fill-rule:nonzero;stroke:none" />
      <path
         d="m 315,35.81546 a 3,3 0 1 1 -6,0 3,3 0 1 1 6,0 z"
         transform="rotate(180,1441.963,-147.3031)"
         id="path5339"
         style="fill:#ffffff;fill-opacity:1;fill-rule:nonzero;stroke:none" />
      <path
         d="m 315,35.81546 a 3,3 0 1 1 -6,0 3,3 0 1 1 6,0 z"
         transform="rotate(180,1442.463,-149.3031)"
         id="path5341"
         style="fill:#ffffff;fill-opacity:1;fill-rule:nonzero;stroke:none" />
      <path
         d="m 315,35.81546 a 3,3 0 1 1 -6,0 3,3 0 1 1 6,0 z"
         transform="rotate(180,1440.463,-150.8031)"
         id="path5343"
         style="fill:#ffffff;fill-opacity:1;fill-rule:nonzero;stroke:none" />
      <path
         d="m 315,35.81546 a 3,3 0 1 1 -6,0 3,3 0 1 1 6,0 z"
         transform="rotate(180,1437.963,-150.3031)"
         id="path5345"
         style="fill:#ffffff;fill-opacity:1;fill-rule:nonzero;stroke:none" />
      <path
         d="m 315,35.81546 a 3,3 0 1 1 -6,0 3,3 0 1 1 6,0 z"
         transform="rotate(180,1436.963,-148.3031)"
         id="path5347"
         style="fill:#ffffff;fill-opacity:1;fill-rule:nonzero;stroke:none" />
      <path
         d="m 315,35.81546 a 3,3 0 1 1 -6,0 3,3 0 1 1 6,0 z"
         transform="rotate(180,1437.963,-146.8031)"
         id="path5349"
         style="fill:#ffffff;fill-opacity:1;fill-rule:nonzero;stroke:none" />
      <path
         d="m 315,35.81546 a 3,3 0 1 1 -6,0 3,3 0 1 1 6,0 z"
         transform="matrix(-1.3333333,0,0,-1.3333334,2982.926,-284.66771)"
         id="path5351"
         style="fill:#ffffff;fill-opacity:1;fill-rule:nonzero;stroke:none" />
      <path
         d="m 324,156.81546 a 1,1 0 1 1 -2,0 1,1 0 1 1 2,0 z"
         transform="translate(2248.926,-499.23712)"
         id="path5353"
         style="fill:#ffffff;fill-opacity:1;fill-rule:nonzero;stroke:none" />
      <path
         d="m 324,156.81546 a 1,1 0 1 1 -2,0 1,1 0 1 1 2,0 z"
         transform="translate(2242.926,-502.23712)"
         id="path5355"
         style="fill:#ffffff;fill-opacity:1;fill-rule:nonzero;stroke:none" />
      <path
         d="m 324,156.81546 a 1,1 0 1 1 -2,0 1,1 0 1 1 2,0 z"
         transform="translate(2236.926,-483.23712)"
         id="path5357"
         style="fill:#ffffff;fill-opacity:1;fill-rule:nonzero;stroke:none" />
      <path
         d="m 324,156.81546 a 1,1 0 1 1 -2,0 1,1 0 1 1 2,0 z"
         transform="translate(2252.926,-482.23712)"
         id="path5359"
         style="fill:#ffffff;fill-opacity:1;fill-rule:nonzero;stroke:none" />
      <path
         d="m 324,156.81546 a 1,1 0 1 1 -2,0 1,1 0 1 1 2,0 z"
         transform="translate(2237.926,-499.23712)"
         id="path5361"
         style="fill:#ffffff;fill-opacity:1;fill-rule:nonzero;stroke:none" />
    </g>
  </g>
</svg>
